<svg xmlns="http://www.w3.org/2000/svg" width="1em" height="1em" viewBox="0 0 16 16"><g fill="currentColor"><path fill-rule="evenodd" d="M12.994 7.875A4 4 0 0 1 12 8h-.01v.217c0 .909.143 1.818.442 2.691l.371 1.113h-9.63v-.012l.37-1.113a8.6 8.6 0 0 0 .443-2.691V6.004c0-.563.12-1.113.347-1.616c.227-.514.55-.969.969-1.34c.419-.382.91-.67 1.436-.837c.538-.18 1.1-.24 1.65-.18l.12.018a4 4 0 0 1 .673-.887a5 5 0 0 0-.697-.135c-.694-.072-1.4 0-2.07.227c-.67.215-1.28.574-1.794 1.053a4.9 4.9 0 0 0-1.208 1.675a5.1 5.1 0 0 0-.431 2.022v2.2a7.6 7.6 0 0 1-.383 2.37L2 12.343l.479.658h3.505c0 .526.215 1.04.586 1.412c.37.37.885.586 1.412.586s1.04-.215 1.411-.586s.587-.886.587-1.412h3.505l.478-.658l-.586-1.77a7.6 7.6 0 0 1-.383-2.381zM7.982 14.02a1 1 0 0 0 .706-.3a.94.94 0 0 0 .287-.705H6.977c0 .263.107.515.299.706a1 1 0 0 0 .706.299" clip-rule="evenodd"/><path d="M12 7a3 3 0 1 0 0-6a3 3 0 0 0 0 6"/></g></svg>