<svg xmlns="http://www.w3.org/2000/svg" width="1em" height="1em" viewBox="0 0 16 16"><path fill="currentColor" fill-rule="evenodd" d="M6 2.972v.012h-.09q-.298 0-.562.121a1.5 1.5 0 0 0-.457.32a1.47 1.47 0 0 0-.42 1.035q0 .34.012.677q.012.336 0 .665a5 5 0 0 1-.055.64q-.05.314-.168.603q-.12.29-.324.552q-.169.216-.413.403a2.3 2.3 0 0 1 .737.955q.12.289.168.608q.05.31.055.64q.012.324 0 .666q-.012.33-.012.672q0 .304.111.573q.119.265.309.468q.196.196.457.319q.263.115.563.115H6V14h-.09q-.47 0-.909-.185a2.3 2.3 0 0 1-.775-.53a2.2 2.2 0 0 1-.493-.753v-.001a3.5 3.5 0 0 1-.198-.824v-.002a6 6 0 0 1-.024-.87q.018-.433.018-.868q0-.297-.117-.566V9.4a1.4 1.4 0 0 0-.308-.465l-.002-.002a1.4 1.4 0 0 0-.455-.318h-.001a1.3 1.3 0 0 0-.557-.122H2v-.984h.09q.292 0 .557-.115q.267-.123.456-.32q.196-.201.309-.467q.117-.27.117-.573q0-.435-.018-.869a6 6 0 0 1 .024-.863V4.3q.05-.43.197-.83v-.001a2.2 2.2 0 0 1 .494-.753A2.3 2.3 0 0 1 5 2.185Q5.441 2 5.911 2H6zm7.923 5.52H14v-.984h-.09q-.292 0-.556-.121l-.001-.001a1.4 1.4 0 0 1-.455-.318l-.002-.002a1.4 1.4 0 0 1-.307-.465l-.001-.002a1.4 1.4 0 0 1-.117-.566q0-.435.018-.869a6 6 0 0 0-.024-.87v-.001a3.5 3.5 0 0 0-.197-.824v-.001a2.2 2.2 0 0 0-.494-.753a2.3 2.3 0 0 0-.775-.53a2.3 2.3 0 0 0-.91-.185H10v.984h.09q.299 0 .562.115q.26.123.457.32q.19.201.309.467q.11.27.11.573q0 .342-.011.672q-.012.342 0 .665q.006.333.055.64q.05.32.168.609q.12.29.324.552q.169.216.413.403l-.031.025c.53.058 1.03.221 1.477.467m-3.59 1.014a3 3 0 1 1 3.334 4.988a3 3 0 0 1-3.334-4.988m2.813.64L12 11.293l-1.146-1.147l-.707.707L11.293 12l-1.147 1.146l.708.708L12 12.707l1.146 1.146l.708-.707L12.707 12l1.147-1.146z" clip-rule="evenodd"/></svg>